<svg id="visual" viewBox="0 0 960 540" width="960" height="540" xmlns="http://www.w3.org/2000/svg" xmlns:xlink="http://www.w3.org/1999/xlink" version="1.1"><path d="M0 44L14.5 48.5C29 53 58 62 87.2 69.2C116.3 76.3 145.7 81.7 174.8 83.5C204 85.3 233 83.7 262 82.8C291 82 320 82 349 74.8C378 67.7 407 53.3 436.2 48C465.3 42.7 494.7 46.3 523.8 52.7C553 59 582 68 611 67C640 66 669 55 698 50.5C727 46 756 48 785.2 46.2C814.3 44.3 843.7 38.7 872.8 45.8C902 53 931 73 945.5 83L960 93L960 0L945.5 0C931 0 902 0 872.8 0C843.7 0 814.3 0 785.2 0C756 0 727 0 698 0C669 0 640 0 611 0C582 0 553 0 523.8 0C494.7 0 465.3 0 436.2 0C407 0 378 0 349 0C320 0 291 0 262 0C233 0 204 0 174.8 0C145.7 0 116.3 0 87.2 0C58 0 29 0 14.5 0L0 0Z" fill="#3562bb"></path><path d="M0 98L14.5 99.8C29 101.7 58 105.3 87.2 115.3C116.3 125.3 145.7 141.7 174.8 148C204 154.3 233 150.7 262 153.3C291 156 320 165 349 153.3C378 141.7 407 109.3 436.2 102.2C465.3 95 494.7 113 523.8 129.2C553 145.3 582 159.7 611 156.8C640 154 669 134 698 130.3C727 126.7 756 139.3 785.2 141.2C814.3 143 843.7 134 872.8 133.2C902 132.3 931 139.7 945.5 143.3L960 147L960 91L945.5 81C931 71 902 51 872.8 43.8C843.7 36.7 814.3 42.3 785.2 44.2C756 46 727 44 698 48.5C669 53 640 64 611 65C582 66 553 57 523.8 50.7C494.7 44.3 465.3 40.7 436.2 46C407 51.3 378 65.7 349 72.8C320 80 291 80 262 80.8C233 81.7 204 83.3 174.8 81.5C145.7 79.7 116.3 74.3 87.2 67.2C58 60 29 51 14.5 46.5L0 42Z" fill="#204faa"></path><path d="M0 276L14.5 289.5C29 303 58 330 87.2 342.7C116.3 355.3 145.7 353.7 174.8 342C204 330.3 233 308.7 262 309.5C291 310.3 320 333.7 349 332.8C378 332 407 307 436.2 290C465.3 273 494.7 264 523.8 274.8C553 285.7 582 316.3 611 325.3C640 334.3 669 321.7 698 317.2C727 312.7 756 316.3 785.2 306.3C814.3 296.3 843.7 272.7 872.8 260C902 247.3 931 245.7 945.5 244.8L960 244L960 145L945.5 141.3C931 137.7 902 130.3 872.8 131.2C843.7 132 814.3 141 785.2 139.2C756 137.3 727 124.7 698 128.3C669 132 640 152 611 154.8C582 157.7 553 143.3 523.8 127.2C494.7 111 465.3 93 436.2 100.2C407 107.3 378 139.7 349 151.3C320 163 291 154 262 151.3C233 148.7 204 152.3 174.8 146C145.7 139.7 116.3 123.3 87.2 113.3C58 103.3 29 99.7 14.5 97.8L0 96Z" fill="#003d98"></path><path d="M0 438L14.5 445.3C29 452.7 58 467.3 87.2 462.8C116.3 458.3 145.7 434.7 174.8 435.5C204 436.3 233 461.7 262 463.5C291 465.3 320 443.7 349 439.2C378 434.7 407 447.3 436.2 459C465.3 470.7 494.7 481.3 523.8 475C553 468.7 582 445.3 611 439.2C640 433 669 444 698 454C727 464 756 473 785.2 472C814.3 471 843.7 460 872.8 447.3C902 434.7 931 420.3 945.5 413.2L960 406L960 242L945.5 242.8C931 243.7 902 245.3 872.8 258C843.7 270.7 814.3 294.3 785.2 304.3C756 314.3 727 310.7 698 315.2C669 319.7 640 332.3 611 323.3C582 314.3 553 283.7 523.8 272.8C494.7 262 465.3 271 436.2 288C407 305 378 330 349 330.8C320 331.7 291 308.3 262 307.5C233 306.7 204 328.3 174.8 340C145.7 351.7 116.3 353.3 87.2 340.7C58 328 29 301 14.5 287.5L0 274Z" fill="#003684"></path><path d="M0 541L14.5 541C29 541 58 541 87.2 541C116.3 541 145.7 541 174.8 541C204 541 233 541 262 541C291 541 320 541 349 541C378 541 407 541 436.2 541C465.3 541 494.7 541 523.8 541C553 541 582 541 611 541C640 541 669 541 698 541C727 541 756 541 785.2 541C814.3 541 843.7 541 872.8 541C902 541 931 541 945.5 541L960 541L960 404L945.5 411.2C931 418.3 902 432.7 872.8 445.3C843.7 458 814.3 469 785.2 470C756 471 727 462 698 452C669 442 640 431 611 437.2C582 443.3 553 466.7 523.8 473C494.7 479.3 465.3 468.7 436.2 457C407 445.3 378 432.7 349 437.2C320 441.7 291 463.3 262 461.5C233 459.7 204 434.3 174.8 433.5C145.7 432.7 116.3 456.3 87.2 460.8C58 465.3 29 450.7 14.5 443.3L0 436Z" fill="#002f70"></path></svg>